<svg width="994" height="457" viewBox="0 0 994 457" fill="none" xmlns="http://www.w3.org/2000/svg">
<g filter="url(#filter0_d_12_125)">
<path d="M46.8874 78.776V60.2H121.767V78.776H94.5514V161H73.9594V78.776H46.8874ZM150.459 48.68V161H131.739V48.68H150.459ZM174.507 120.68C174.507 116.264 173.643 112.904 171.915 110.6C170.283 108.296 167.499 107.144 163.563 107.144C160.971 107.144 158.667 107.72 156.651 108.872C154.635 109.928 153.099 111.464 152.043 113.48C150.987 115.496 150.459 117.896 150.459 120.68H146.715C146.715 115.4 147.579 110.648 149.307 106.424C151.131 102.2 153.819 98.84 157.371 96.344C160.923 93.848 165.291 92.6 170.475 92.6C175.659 92.6 179.931 93.56 183.291 95.48C186.651 97.4 189.147 100.28 190.779 104.12C192.411 107.864 193.227 112.472 193.227 117.944V161H174.507V120.68ZM224.862 140.408C224.862 142.328 225.342 144.008 226.302 145.448C227.262 146.792 228.558 147.848 230.19 148.616C231.918 149.288 233.79 149.624 235.806 149.624C238.686 149.624 241.278 149.048 243.582 147.896C245.886 146.648 247.758 144.92 249.198 142.712C250.638 140.408 251.358 137.672 251.358 134.504L253.662 143.144C253.662 147.368 252.462 150.92 250.062 153.8C247.758 156.68 244.734 158.84 240.99 160.28C237.342 161.72 233.502 162.44 229.47 162.44C225.342 162.44 221.502 161.624 217.95 159.992C214.398 158.36 211.518 156.008 209.31 152.936C207.198 149.768 206.142 145.928 206.142 141.416C206.142 134.984 208.398 129.896 212.91 126.152C217.422 122.408 223.806 120.536 232.062 120.536C236.286 120.536 239.982 120.968 243.15 121.832C246.414 122.696 249.15 123.752 251.358 125C253.566 126.248 255.15 127.448 256.11 128.6V137.24C253.518 135.32 250.59 133.88 247.326 132.92C244.158 131.96 240.798 131.48 237.246 131.48C234.366 131.48 232.014 131.864 230.19 132.632C228.366 133.304 227.022 134.312 226.158 135.656C225.294 136.904 224.862 138.488 224.862 140.408ZM217.662 113.48L210.75 100.808C214.206 98.984 218.43 97.256 223.422 95.624C228.414 93.896 233.982 93.032 240.126 93.032C245.79 93.032 250.83 93.848 255.246 95.48C259.662 97.112 263.118 99.512 265.614 102.68C268.11 105.752 269.358 109.544 269.358 114.056V161H251.358V117.944C251.358 116.12 251.07 114.584 250.494 113.336C249.918 111.992 249.006 110.888 247.758 110.024C246.606 109.16 245.214 108.536 243.582 108.152C241.95 107.768 240.126 107.576 238.11 107.576C235.038 107.576 232.11 107.912 229.326 108.584C226.542 109.256 224.142 110.072 222.126 111.032C220.11 111.992 218.622 112.808 217.662 113.48ZM329.476 120.68C329.476 116.264 328.612 112.904 326.884 110.6C325.156 108.296 322.372 107.144 318.532 107.144C315.94 107.144 313.636 107.72 311.62 108.872C309.604 109.928 308.068 111.464 307.012 113.48C305.956 115.496 305.428 117.896 305.428 120.68V161H286.708V94.76H305.428V104.84C307.444 101.096 310.084 98.264 313.348 96.344C316.708 94.328 320.74 93.32 325.444 93.32C333.316 93.32 339.172 95.576 343.012 100.088C346.852 104.504 348.772 110.696 348.772 118.664V161H329.476V120.68ZM366.714 48.68H384.714V161H366.714V48.68ZM409.05 94.76H431.37L402.858 122.12L434.25 161H412.074L380.538 122.12L409.05 94.76ZM550.311 94.76L507.111 192.68H487.959L504.663 154.376L477.159 94.76H497.895L519.207 147.464L509.991 147.176L530.871 94.76H550.311ZM552.104 127.88C552.104 120.968 553.688 114.92 556.856 109.736C560.12 104.552 564.488 100.52 569.96 97.64C575.528 94.76 581.816 93.32 588.824 93.32C595.832 93.32 602.072 94.76 607.544 97.64C613.112 100.52 617.48 104.552 620.648 109.736C623.912 114.92 625.544 120.968 625.544 127.88C625.544 134.696 623.912 140.744 620.648 146.024C617.48 151.208 613.112 155.24 607.544 158.12C602.072 161 595.832 162.44 588.824 162.44C581.816 162.44 575.528 161 569.96 158.12C564.488 155.24 560.12 151.208 556.856 146.024C553.688 140.744 552.104 134.696 552.104 127.88ZM571.112 127.88C571.112 131.624 571.88 134.936 573.416 137.816C575.048 140.6 577.208 142.808 579.896 144.44C582.584 145.976 585.56 146.744 588.824 146.744C592.088 146.744 595.064 145.976 597.752 144.44C600.44 142.808 602.552 140.6 604.088 137.816C605.72 134.936 606.536 131.624 606.536 127.88C606.536 124.136 605.72 120.824 604.088 117.944C602.552 115.064 600.44 112.856 597.752 111.32C595.064 109.784 592.088 109.016 588.824 109.016C585.56 109.016 582.584 109.784 579.896 111.32C577.208 112.856 575.048 115.064 573.416 117.944C571.88 120.824 571.112 124.136 571.112 127.88ZM658.832 135.08C658.832 139.4 659.696 142.76 661.424 145.16C663.152 147.464 665.936 148.616 669.776 148.616C672.464 148.616 674.768 148.088 676.688 147.032C678.704 145.88 680.24 144.296 681.296 142.28C682.448 140.264 683.024 137.864 683.024 135.08V94.76H701.6V161H683.024V150.92C680.912 154.664 678.224 157.544 674.96 159.56C671.696 161.48 667.712 162.44 663.008 162.44C655.136 162.44 649.232 160.184 645.296 155.672C641.456 151.16 639.536 144.968 639.536 137.096V94.76H658.832V135.08ZM757.53 94.76H799.002V110.456H757.53V94.76ZM796.986 67.4C796.026 65.96 794.922 65 793.674 64.52C792.522 63.944 791.37 63.656 790.218 63.656C788.778 63.656 787.53 64.04 786.474 64.808C785.514 65.48 784.746 66.632 784.17 68.264C783.594 69.896 783.306 71.96 783.306 74.456V161H765.306V70.28C765.306 65.192 766.17 60.92 767.898 57.464C769.626 54.008 772.218 51.368 775.674 49.544C779.13 47.624 783.354 46.664 788.346 46.664C791.322 46.664 793.866 47.048 795.978 47.816C798.09 48.488 799.866 49.352 801.306 50.408C802.842 51.464 804.042 52.472 804.906 53.432L796.986 67.4ZM805.65 127.88C805.65 120.968 807.234 114.92 810.402 109.736C813.666 104.552 818.034 100.52 823.506 97.64C829.074 94.76 835.362 93.32 842.37 93.32C849.378 93.32 855.618 94.76 861.09 97.64C866.658 100.52 871.026 104.552 874.194 109.736C877.458 114.92 879.09 120.968 879.09 127.88C879.09 134.696 877.458 140.744 874.194 146.024C871.026 151.208 866.658 155.24 861.09 158.12C855.618 161 849.378 162.44 842.37 162.44C835.362 162.44 829.074 161 823.506 158.12C818.034 155.24 813.666 151.208 810.402 146.024C807.234 140.744 805.65 134.696 805.65 127.88ZM824.658 127.88C824.658 131.624 825.426 134.936 826.962 137.816C828.594 140.6 830.754 142.808 833.442 144.44C836.13 145.976 839.106 146.744 842.37 146.744C845.634 146.744 848.61 145.976 851.298 144.44C853.986 142.808 856.098 140.6 857.634 137.816C859.266 134.936 860.082 131.624 860.082 127.88C860.082 124.136 859.266 120.824 857.634 117.944C856.098 115.064 853.986 112.856 851.298 111.32C848.61 109.784 845.634 109.016 842.37 109.016C839.106 109.016 836.13 109.784 833.442 111.32C830.754 112.856 828.594 115.064 826.962 117.944C825.426 120.824 824.658 124.136 824.658 127.88ZM911.371 94.76V161H893.083V94.76H911.371ZM930.811 114.2C929.563 113.048 928.267 112.184 926.923 111.608C925.675 110.936 924.091 110.6 922.171 110.6C919.867 110.6 917.899 111.224 916.267 112.472C914.635 113.72 913.387 115.496 912.523 117.8C911.755 120.008 911.371 122.696 911.371 125.864L906.187 120.68C906.187 115.4 907.195 110.744 909.211 106.712C911.227 102.584 913.867 99.32 917.131 96.92C920.395 94.424 923.755 93.176 927.211 93.176C929.611 93.176 931.867 93.608 933.979 94.472C936.187 95.336 937.963 96.632 939.307 98.36L930.811 114.2ZM178.971 302.76H198.843L213.387 339.48L232.107 297.72L251.547 339.624L266.235 302.76H285.963L253.563 373.464L232.251 331.272L211.515 373.464L178.971 302.76ZM308.042 348.408C308.042 350.328 308.522 352.008 309.482 353.448C310.442 354.792 311.738 355.848 313.37 356.616C315.098 357.288 316.97 357.624 318.986 357.624C321.866 357.624 324.458 357.048 326.762 355.896C329.066 354.648 330.938 352.92 332.378 350.712C333.818 348.408 334.538 345.672 334.538 342.504L336.842 351.144C336.842 355.368 335.642 358.92 333.242 361.8C330.938 364.68 327.914 366.84 324.17 368.28C320.522 369.72 316.682 370.44 312.65 370.44C308.522 370.44 304.682 369.624 301.13 367.992C297.578 366.36 294.698 364.008 292.49 360.936C290.378 357.768 289.322 353.928 289.322 349.416C289.322 342.984 291.578 337.896 296.09 334.152C300.602 330.408 306.986 328.536 315.242 328.536C319.466 328.536 323.162 328.968 326.33 329.832C329.594 330.696 332.33 331.752 334.538 333C336.746 334.248 338.33 335.448 339.29 336.6V345.24C336.698 343.32 333.77 341.88 330.506 340.92C327.338 339.96 323.978 339.48 320.426 339.48C317.546 339.48 315.194 339.864 313.37 340.632C311.546 341.304 310.202 342.312 309.338 343.656C308.474 344.904 308.042 346.488 308.042 348.408ZM300.842 321.48L293.93 308.808C297.386 306.984 301.61 305.256 306.602 303.624C311.594 301.896 317.162 301.032 323.306 301.032C328.97 301.032 334.01 301.848 338.426 303.48C342.842 305.112 346.298 307.512 348.794 310.68C351.29 313.752 352.538 317.544 352.538 322.056V369H334.538V325.944C334.538 324.12 334.25 322.584 333.674 321.336C333.098 319.992 332.186 318.888 330.938 318.024C329.786 317.16 328.394 316.536 326.762 316.152C325.13 315.768 323.306 315.576 321.29 315.576C318.218 315.576 315.29 315.912 312.506 316.584C309.722 317.256 307.322 318.072 305.306 319.032C303.29 319.992 301.802 320.808 300.842 321.48ZM361.392 302.76H402.288V318.456H361.392V302.76ZM372.768 279.72H390.768V369H372.768V279.72ZM426.328 335.88C426.328 339.72 427.192 343.08 428.92 345.96C430.648 348.84 432.952 351.096 435.832 352.728C438.808 354.36 442.072 355.176 445.624 355.176C448.504 355.176 451.288 354.744 453.976 353.88C456.664 352.92 459.064 351.672 461.176 350.136C463.384 348.504 465.064 346.632 466.216 344.52V363.672C463.912 365.784 460.888 367.464 457.144 368.712C453.496 369.864 449.224 370.44 444.328 370.44C437.32 370.44 430.984 369 425.32 366.12C419.752 363.24 415.336 359.208 412.072 354.024C408.904 348.744 407.32 342.696 407.32 335.88C407.32 328.968 408.904 322.92 412.072 317.736C415.336 312.552 419.752 308.52 425.32 305.64C430.984 302.76 437.32 301.32 444.328 301.32C449.224 301.32 453.496 301.944 457.144 303.192C460.888 304.344 463.912 305.928 466.216 307.944V327.096C465.064 324.984 463.336 323.16 461.032 321.624C458.824 319.992 456.376 318.744 453.688 317.88C451 317.016 448.312 316.584 445.624 316.584C442.072 316.584 438.808 317.448 435.832 319.176C432.952 320.808 430.648 323.064 428.92 325.944C427.192 328.824 426.328 332.136 426.328 335.88ZM501.389 256.68V369H482.669V256.68H501.389ZM525.437 328.68C525.437 324.264 524.573 320.904 522.845 318.6C521.213 316.296 518.429 315.144 514.493 315.144C511.901 315.144 509.597 315.72 507.581 316.872C505.565 317.928 504.029 319.464 502.973 321.48C501.917 323.496 501.389 325.896 501.389 328.68H497.645C497.645 323.4 498.509 318.648 500.237 314.424C502.061 310.2 504.749 306.84 508.301 304.344C511.853 301.848 516.221 300.6 521.405 300.6C526.589 300.6 530.861 301.56 534.221 303.48C537.581 305.4 540.077 308.28 541.709 312.12C543.341 315.864 544.157 320.472 544.157 325.944V369H525.437V328.68ZM561.68 277.128C561.68 274.056 562.784 271.56 564.992 269.64C567.2 267.624 569.84 266.616 572.912 266.616C575.984 266.616 578.576 267.624 580.688 269.64C582.896 271.56 584 274.056 584 277.128C584 280.104 582.896 282.6 580.688 284.616C578.576 286.632 575.984 287.64 572.912 287.64C569.84 287.64 567.2 286.632 564.992 284.616C562.784 282.6 561.68 280.104 561.68 277.128ZM563.696 302.76H581.84V369H563.696V302.76ZM644.406 328.68C644.406 324.264 643.542 320.904 641.814 318.6C640.086 316.296 637.302 315.144 633.462 315.144C630.87 315.144 628.566 315.72 626.55 316.872C624.534 317.928 622.998 319.464 621.942 321.48C620.886 323.496 620.358 325.896 620.358 328.68V369H601.638V302.76H620.358V312.84C622.374 309.096 625.014 306.264 628.278 304.344C631.638 302.328 635.67 301.32 640.374 301.32C648.246 301.32 654.102 303.576 657.942 308.088C661.782 312.504 663.702 318.696 663.702 326.664V369H644.406V328.68ZM678.907 373.608H697.195C697.291 376.488 698.059 378.936 699.499 380.952C700.939 383.064 702.907 384.696 705.403 385.848C707.899 387 710.827 387.576 714.187 387.576C717.259 387.576 720.139 386.856 722.827 385.416C725.611 383.976 727.819 381.768 729.451 378.792C731.179 375.816 732.043 372.072 732.043 367.56V302.76H750.043V367.56C750.043 375.72 748.411 382.44 745.147 387.72C741.979 393 737.707 396.84 732.331 399.24C726.955 401.736 721.099 402.984 714.763 402.984C707.083 402.984 700.651 401.736 695.467 399.24C690.283 396.84 686.299 393.384 683.515 388.872C680.827 384.456 679.291 379.368 678.907 373.608ZM677.611 335.304C677.611 327.912 679.099 321.72 682.075 316.728C685.051 311.64 688.987 307.8 693.883 305.208C698.779 302.616 703.963 301.32 709.435 301.32C715.003 301.32 719.899 302.664 724.123 305.352C728.443 308.04 731.803 311.928 734.203 317.016C736.699 322.008 737.947 328.104 737.947 335.304C737.947 342.408 736.699 348.504 734.203 353.592C731.803 358.68 728.443 362.568 724.123 365.256C719.899 367.848 715.003 369.144 709.435 369.144C703.963 369.144 698.779 367.848 693.883 365.256C688.987 362.664 685.051 358.872 682.075 353.88C679.099 348.792 677.611 342.6 677.611 335.304ZM696.907 335.304C696.907 339.24 697.723 342.6 699.355 345.384C700.987 348.072 703.195 350.136 705.979 351.576C708.763 353.016 711.739 353.736 714.907 353.736C717.691 353.736 720.379 353.064 722.971 351.72C725.659 350.28 727.819 348.216 729.451 345.528C731.179 342.744 732.043 339.336 732.043 335.304C732.043 332.232 731.563 329.544 730.603 327.24C729.643 324.936 728.299 323.016 726.571 321.48C724.939 319.944 723.115 318.792 721.099 318.024C719.083 317.16 717.019 316.728 714.907 316.728C711.739 316.728 708.763 317.448 705.979 318.888C703.195 320.328 700.987 322.44 699.355 325.224C697.723 327.912 696.907 331.272 696.907 335.304ZM771.162 268.2H794.202L790.026 337.176H775.338L771.162 268.2ZM770.874 361.08C770.874 357.912 771.978 355.32 774.186 353.304C776.49 351.192 779.322 350.136 782.682 350.136C786.138 350.136 788.97 351.192 791.178 353.304C793.386 355.32 794.49 357.912 794.49 361.08C794.49 364.248 793.386 366.888 791.178 369C788.97 371.016 786.138 372.024 782.682 372.024C779.322 372.024 776.49 371.016 774.186 369C771.978 366.888 770.874 364.248 770.874 361.08Z" fill="#3E3FD8"/>
</g>
<defs>
<filter id="filter0_d_12_125" x="0.887451" y="0.664062" width="992.42" height="456.32" filterUnits="userSpaceOnUse" color-interpolation-filters="sRGB">
<feFlood flood-opacity="0" result="BackgroundImageFix"/>
<feColorMatrix in="SourceAlpha" type="matrix" values="0 0 0 0 0 0 0 0 0 0 0 0 0 0 0 0 0 0 127 0" result="hardAlpha"/>
<feOffset dx="4" dy="4"/>
<feGaussianBlur stdDeviation="25"/>
<feComposite in2="hardAlpha" operator="out"/>
<feColorMatrix type="matrix" values="0 0 0 0 0 0 0 0 0 0 0 0 0 0 0 0 0 0 0.25 0"/>
<feBlend mode="normal" in2="BackgroundImageFix" result="effect1_dropShadow_12_125"/>
<feBlend mode="normal" in="SourceGraphic" in2="effect1_dropShadow_12_125" result="shape"/>
</filter>
</defs>
</svg>
